# xmcd CD database file
#
# Track frame offsets:
#	150
#	22217
#	53187
#	87262
#	119595
#	141962
#	171687
#	202362
#	234940
#	267540
#
# Disc length: 3928 seconds
#
# Revision: 0
# Processed by: cddbd v1.5.2PL0 Copyright (c) Steve Scherf et al.
# Submitted via: CDex 1.70beta3
#
DISCID=a10f560a
DTITLE=Bill Evans - Waltz for Debby
DYEAR=1961
DGENRE=Jazz
TTITLE0=My Foolish Heart
TTITLE1=Waltz for Debby
TTITLE2=Detour Ahead
TTITLE3=My Romance
TTITLE4=Some Other Time
TTITLE5=Milestones
TTITLE6=Waltz for Debby (Take 1)
TTITLE7=Detour Ahead (Take 1)
TTITLE8=My Romance (Take 2)
TTITLE9=Porgy (I Loves You, Porgy)
EXTD=YEAR: 1961
EXTT0=
EXTT1=
EXTT2=
EXTT3=
EXTT4=
EXTT5=
EXTT6=
EXTT7=
EXTT8=
EXTT9=
PLAYORDER=
